<svg xmlns="http://www.w3.org/2000/svg" width="202.009" height="26.163" viewBox="0 0 202.009 26.163"><defs><style>.a,.e{fill:#00ab9f;}.b,.d{fill:#0068b4;}.c{fill:#6cc1b3;}.d,.e{fill-rule:evenodd;}</style></defs><g transform="translate(0 0.001)"><path class="a" d="M56.43,27.827c2.127,2.546,4.747,4.457,7.988,4.243a11.519,11.519,0,0,1-6.581-6.67c-.471.8-.942,1.62-1.407,2.427" transform="translate(-27.941 -10.92)"/><path class="a" d="M48.951,4.539c-6.37,4.35-8.276,11.275-12.563,17.21a22.239,22.239,0,0,1-3.75,4.154,11.88,11.88,0,0,1-3.108,1.78,10.961,10.961,0,0,0,8.492-2.9c4.221-3.727,5.506-8.688,9.068-12.86,2.133-2.492,4.758-4.463,7.816-4.747a6.489,6.489,0,0,1,5.683,2.469c3.235,3.727,2.725,10.682-.393,14.587a10.52,10.52,0,0,1-4.62,3.335,9.917,9.917,0,0,0,8.4-4.439,15.2,15.2,0,0,0,2.033-11.714C63.963,3.168,55.72-.126,48.951,4.539" transform="translate(-15.942 -1.572)"/><path class="b" d="M16.947,22.126A5.264,5.264,0,0,0,18.609,22c-4.67-1.24-6.647-8.593-4.033-13.222a7.55,7.55,0,0,1,6.7-3.816c3.589,0,5.872,2.107,7.9,5A21.445,21.445,0,0,1,31.233,7.32C28.1,2.649,23.854-.033,18.287,1.374a11.509,11.509,0,0,0-7.9,7.673C8.56,14.583,11.081,21.7,16.947,22.1" transform="translate(-7.142 -1)"/><path class="c" d="M56.09,34.42a12.3,12.3,0,0,0,5.257,3.46,9.781,9.781,0,0,0,2.332.445,11.977,11.977,0,0,0,3.218-.214h.072a10.576,10.576,0,0,0,1.324-.445,7.143,7.143,0,0,1-.709.475,8.922,8.922,0,0,1-.875.421,7.422,7.422,0,0,1-3.567.682c-2.41-.172-4.775-1.668-7.2-4.552l.161-.261" transform="translate(-27.722 -14.588)"/><path class="a" d="M71.036,30.18c-3.567,7.833-12.707,5.8-16.79.593-.449.76-.836,1.418-1.346,2.148a13.305,13.305,0,0,0,8.58,5.264c5.229.653,8.78-2.587,9.555-7.982" transform="translate(-26.366 -12.864)"/><path class="b" d="M30.72,9.1a8.511,8.511,0,0,1,3.722,2.214,15.239,15.239,0,0,1,2.77,4.2l.366-.593.5-.831a16.48,16.48,0,0,0-2.327-2.854A7.059,7.059,0,0,0,30.764,9.09" transform="translate(-16.473 -4.289)"/><path class="b" d="M38.63,3.92c-4.825,1.015-8.148,4.445-10.8,8.356-3.645,5.341-9.716,15.791-17.006,10.949C5.632,19.777,5.139,10.5,9.986,4.709c-8.6,6.379-5.44,22.4,4.653,22.877a7.748,7.748,0,0,0,4.155-.979c6.343-3.472,10.259-15.477,15.693-20.04A15.559,15.559,0,0,1,38.624,3.92" transform="translate(-5 -2.187)"/><path class="a" d="M219.66,17.808h3.434a1.338,1.338,0,0,0,1.523-1.442c.022-.944-.554-1.317-1.5-1.353H219.66Zm4.93,2.13,3.047,5.75h-2.77l-2.947-5.436H219.7v5.436H217.25V12.55h5.334q4.287,0,4.293,3.786a3.37,3.37,0,0,1-2.288,3.6Z" transform="translate(-99.677 -5.696)"/><path class="a" d="M193.1,25.689l4.93-13.139h2.454l4.9,13.133h-2.615l-.742-2.006H196.49l-.737,2.006Zm6.2-9.643-1.872,5.02H201.1Z" transform="translate(-88.905 -5.696)"/><path class="a" d="M238.033,12.56h8.531a7.386,7.386,0,0,0-1.917,2.457H238Zm0,5.264h5.8a9.982,9.982,0,0,0,0,2.439h-5.805Zm0,5.436h6.736a7.4,7.4,0,0,0,1.961,2.374v.053h-8.7Z" transform="translate(-108.933 -5.7)"/><path class="a" d="M177.1,25.689h2.454l3.274-13.139h-2.615l-2.133,8.943-2.127-8.943h-2.543L171.2,21.493l-2.1-8.943h-2.62l3.274,13.139H172.2l2.454-9.643Z" transform="translate(-77.026 -5.696)"/><path class="a" d="M150.622,25.687a6.335,6.335,0,0,1-6.3-6.385,6.394,6.394,0,0,1,5.96-6.753h.343a6.335,6.335,0,0,1,6.307,6.382,6.4,6.4,0,0,1-5.958,6.756h-.349m0-2.451a3.316,3.316,0,0,0,2.648-1.187,4.731,4.731,0,0,0,0-5.863,3.581,3.581,0,0,0-5.3,0h0a4.718,4.718,0,0,0,0,5.863,3.325,3.325,0,0,0,2.676,1.187Z" transform="translate(-67.144 -5.694)"/><path class="a" d="M128.68,17.808h3.44a1.348,1.348,0,0,0,1.523-1.442c.033-.944-.554-1.317-1.5-1.353H128.68Zm4.936,2.13,3.058,5.727h-2.8l-2.947-5.436h-2.216v5.436H126.27V12.55h5.34q4.287,0,4.293,3.786a3.388,3.388,0,0,1-2.293,3.6Z" transform="translate(-59.094 -5.696)"/><path class="a" d="M110.728,25.687a6.186,6.186,0,0,1-5.654-4.078,6.962,6.962,0,0,1,1.3-7.168,5.714,5.714,0,0,1,4.354-1.893,6.43,6.43,0,0,1,4.5,1.78l-1.662,1.929a4.325,4.325,0,0,0-2.847-1.068,3.363,3.363,0,0,0-2.532.961,3.863,3.863,0,0,0-1.151,2.6q-.008.166,0,.332a4.1,4.1,0,0,0,1.019,2.908,3.479,3.479,0,0,0,2.664,1.074,3.228,3.228,0,0,0,2.038-.558V20.252H111.1V17.795h4.094v6.142a6.388,6.388,0,0,1-4.5,1.751" transform="translate(-49.429 -5.695)"/><path class="d" d="M367.45,4.72a2.653,2.653,0,0,0-2.77,2.789v15h2.77Z" transform="translate(-165.44 -2.513)"/><path class="d" d="M344.684,14.724a3.657,3.657,0,0,1,3.626,3.7,3.548,3.548,0,1,1-7.077.183V18.51a3.639,3.639,0,0,1,3.456-3.786m0-3.05a5.925,5.925,0,0,1,4.022,1.6c.078-1.05.908-1.555,2.7-1.656V25.311h-2.77v-1.5a5.9,5.9,0,0,1-3.961,1.549,6.643,6.643,0,0,1-6.2-6.839,6.643,6.643,0,0,1,6.2-6.839Z" transform="translate(-153.753 -5.318)"/><path class="d" d="M283.12,4.72a2.674,2.674,0,0,0-2.77,2.825v14.96h2.77Z" transform="translate(-127.824 -2.513)"/><path class="d" d="M308.284,11.694a6.559,6.559,0,0,1,6.245,5.99,6.839,6.839,0,0,1-4.681,7.449,6.276,6.276,0,0,1-7.53-3.944l2.382-2.5a3.591,3.591,0,1,0,7.167-.095,3.717,3.717,0,0,0-3.583-3.816c-4.215,0-8.065,10.628-13.954,10.628a6.564,6.564,0,0,1-6.259-5.992,6.845,6.845,0,0,1,4.687-7.46,6.282,6.282,0,0,1,7.538,3.957L297.9,18.394a3.591,3.591,0,1,0-7.167.1A3.715,3.715,0,0,0,294.33,22.3c2.853,0,7.406-7.489,10.5-9.566a6.157,6.157,0,0,1,3.457-1.068" transform="translate(-131.246 -5.338)"/><path class="e" d="M315.66,3a2.65,2.65,0,0,0-2.77,2.789V11.13a20.5,20.5,0,0,1,2.77-2.73Z" transform="translate(-142.339 -1.813)"/><path class="d" d="M260.688,14.69a3.7,3.7,0,0,1,3.548,3.832,3.575,3.575,0,1,1-7.135,0,3.7,3.7,0,0,1,3.548-3.832h.039m0-3.05a6.239,6.239,0,0,1,3.878,1.353V11.64l2.77.059V23.96a6.288,6.288,0,0,1-6.265,6.29h0a6.3,6.3,0,0,1-6.093-4.67h3a3.48,3.48,0,0,0,6.559-1.626h0a6.218,6.218,0,0,1-3.85,1.347,6.668,6.668,0,0,1-5.926-6.825,6.668,6.668,0,0,1,5.926-6.824h0Z" transform="translate(-116.41 -5.326)"/></g></svg>